<?xml version="1.0" encoding="utf-8"?>
<!-- Generator: Adobe Illustrator 16.0.0, SVG Export Plug-In . SVG Version: 6.00 Build 0)  -->
<!DOCTYPE svg PUBLIC "-//W3C//DTD SVG 1.1//EN" "http://www.w3.org/Graphics/SVG/1.1/DTD/svg11.dtd">
<svg version="1.1" id="Layer_1" xmlns="http://www.w3.org/2000/svg" xmlns:xlink="http://www.w3.org/1999/xlink" x="0px" y="0px"
	 width="19.748px" height="20.449px" viewBox="0 0 19.748 20.449" enable-background="new 0 0 19.748 20.449" xml:space="preserve">
<path fill="#F19520" d="M2.099,5.512h1.193c0.624,0,1.129-0.506,1.129-1.129V4.101c0-0.624-0.505-1.13-1.129-1.13H2.099
	c-0.624,0-1.13,0.506-1.13,1.13v0.282C0.969,5.006,1.475,5.512,2.099,5.512"/>
<path fill="#F19520" d="M2.099,11.406h1.193c0.624,0,1.129-0.506,1.129-1.129V9.994c0-0.624-0.505-1.131-1.129-1.131H2.099
	c-0.624,0-1.13,0.507-1.13,1.131v0.283C0.969,10.9,1.475,11.406,2.099,11.406"/>
<path fill="#F19520" d="M3.292,17.3c0.624,0,1.13-0.506,1.13-1.131v-0.281c0-0.625-0.506-1.131-1.13-1.131H2.098
	c-0.624,0-1.129,0.506-1.129,1.131v0.281c0,0.625,0.505,1.131,1.129,1.131H3.292z"/>
<path fill="#F19520" d="M17.839,0.984H3.205c-0.624,0-1.131,0.538-1.131,1.204v0.404c0.01,0,0.018-0.001,0.025-0.001h1.193
	c0.832,0,1.509,0.677,1.509,1.509v0.282c0,0.831-0.677,1.508-1.509,1.508H2.099c-0.008,0-0.016,0-0.025,0v2.596
	c0.01,0,0.018,0,0.025,0h1.193c0.832,0,1.509,0.676,1.509,1.508v0.283c0,0.832-0.677,1.508-1.509,1.508H2.099
	c-0.008,0-0.016,0-0.025,0v2.595c0.01,0,0.018,0,0.025,0h1.193c0.832,0,1.509,0.676,1.509,1.508v0.281
	c0,0.832-0.677,1.51-1.509,1.51H2.099c-0.008,0-0.016-0.002-0.025-0.002v0.543c0,0.666,0.507,1.205,1.131,1.205h14.635
	c0.624,0,1.13-0.539,1.13-1.205V2.188C18.969,1.522,18.463,0.984,17.839,0.984 M11.138,5.513c1.703,0,3.084,1.381,3.084,3.085
	c0,1.703-1.381,3.085-3.084,3.085c-1.704,0-3.085-1.382-3.085-3.085C8.053,6.894,9.434,5.513,11.138,5.513 M15.694,14.337H6.582
	C6.566,14.226,6.558,14.113,6.558,14c0-1.186,0.849-2.227,2.129-2.818C9,11.478,9.356,11.711,9.751,11.879
	c0.439,0.186,0.905,0.279,1.387,0.279c0.48,0,0.947-0.094,1.386-0.279c0.396-0.168,0.753-0.401,1.064-0.697
	c1.28,0.592,2.129,1.633,2.129,2.818C15.717,14.113,15.709,14.226,15.694,14.337"/>
</svg>
