<?xml version="1.0" encoding="utf-8"?>
<!-- Generator: Adobe Illustrator 16.0.0, SVG Export Plug-In . SVG Version: 6.00 Build 0)  -->
<!DOCTYPE svg PUBLIC "-//W3C//DTD SVG 1.1//EN" "http://www.w3.org/Graphics/SVG/1.1/DTD/svg11.dtd">
<svg version="1.1" id="Layer_1" xmlns="http://www.w3.org/2000/svg" xmlns:xlink="http://www.w3.org/1999/xlink" x="0px" y="0px"
	 width="19.748px" height="20.449px" viewBox="0 0 19.748 20.449" enable-background="new 0 0 19.748 20.449" xml:space="preserve">
<path fill="#FFFFFF" d="M16.237,4.099c-1.699-1.7-3.959-2.636-6.363-2.636c-2.404,0-4.664,0.936-6.364,2.636
	c-1.7,1.7-2.636,3.959-2.636,6.364c0,2.404,0.936,4.665,2.636,6.364s3.96,2.637,6.364,2.637c2.404,0,4.664-0.938,6.363-2.637
	c1.701-1.699,2.638-3.96,2.638-6.364C18.875,8.058,17.938,5.799,16.237,4.099 M9.874,4.253c1.564,0,2.833,1.269,2.833,2.834
	s-1.27,2.834-2.833,2.834c-1.565,0-2.835-1.269-2.835-2.834S8.309,4.253,9.874,4.253 M9.874,18.246
	c-1.709,0-3.289-0.553-4.574-1.488c-0.767-0.561-1.103-1.543-0.832-2.453c0.603-2.022,1.85-3.623,3.412-4.371l0.808,0.965
	c0.621,0.741,1.758,0.747,2.387,0.013l0.824-0.963c1.539,0.75,2.766,2.328,3.369,4.319c0.283,0.939-0.063,1.945-0.857,2.516
	C13.133,17.703,11.565,18.246,9.874,18.246"/>
</svg>
