<?xml version="1.0" encoding="utf-8"?>
<!-- Generator: Adobe Illustrator 16.0.0, SVG Export Plug-In . SVG Version: 6.00 Build 0)  -->
<!DOCTYPE svg PUBLIC "-//W3C//DTD SVG 1.1//EN" "http://www.w3.org/Graphics/SVG/1.1/DTD/svg11.dtd">
<svg version="1.1" id="Layer_1" xmlns="http://www.w3.org/2000/svg" xmlns:xlink="http://www.w3.org/1999/xlink" x="0px" y="0px"
	 width="19.748px" height="20.449px" viewBox="0 0 19.748 20.449" enable-background="new 0 0 19.748 20.449" xml:space="preserve">
<path fill="#FFFFFF" d="M18.694,13.315c-0.736-0.76-1.141-1.787-1.107-2.847c0.004-0.082,0.004-0.163,0.004-0.245
	c0-0.08,0-0.162-0.004-0.244c-0.033-1.059,0.371-2.085,1.107-2.847h0.002c0.195-0.202,0.234-0.511,0.094-0.755l-0.563-0.976
	l-0.564-0.975c-0.115-0.199-0.324-0.315-0.545-0.315c-0.053,0-0.104,0.006-0.156,0.019c-1.029,0.259-2.119,0.094-3.021-0.466
	c-0.139-0.085-0.279-0.167-0.422-0.244c-0.934-0.501-1.621-1.363-1.91-2.382C11.53,0.768,11.284,0.58,11,0.58H8.748
	c-0.282,0-0.53,0.188-0.608,0.459C7.851,2.058,7.164,2.92,6.229,3.421C6.087,3.498,5.945,3.58,5.807,3.665
	c-0.9,0.56-1.992,0.725-3.021,0.466C2.733,4.118,2.683,4.112,2.632,4.112c-0.222,0-0.433,0.116-0.547,0.315L1.521,5.402L0.959,6.378
	C0.817,6.622,0.855,6.931,1.052,7.133l0.001,0.001c0.739,0.76,1.141,1.787,1.108,2.846c-0.003,0.082-0.003,0.164-0.003,0.244
	c0,0.082,0,0.164,0.003,0.245c0.032,1.06-0.369,2.086-1.108,2.847H1.052c-0.196,0.204-0.234,0.512-0.093,0.756l0.563,0.975
	l0.563,0.977c0.114,0.197,0.325,0.314,0.547,0.314c0.051,0,0.102-0.006,0.154-0.02c1.028-0.26,2.12-0.096,3.021,0.467
	c0.139,0.084,0.28,0.166,0.423,0.244c0.935,0.5,1.621,1.361,1.91,2.381c0.078,0.273,0.326,0.459,0.608,0.459H11
	c0.283,0,0.529-0.186,0.607-0.459c0.289-1.02,0.977-1.881,1.91-2.381c0.143-0.078,0.283-0.16,0.422-0.244
	c0.902-0.563,1.992-0.727,3.021-0.467c0.053,0.014,0.104,0.02,0.156,0.02c0.221,0,0.43-0.117,0.545-0.314l0.564-0.977l0.563-0.975
	c0.141-0.244,0.102-0.553-0.094-0.756H18.694z M14.87,10.39c-0.086,2.619-2.211,4.745-4.83,4.831
	c-2.888,0.094-5.255-2.276-5.161-5.161C4.964,7.44,7.09,5.315,9.708,5.229C12.594,5.136,14.963,7.504,14.87,10.39"/>
</svg>
