<?xml version="1.0" encoding="utf-8"?>
<!-- Generator: Adobe Illustrator 16.0.0, SVG Export Plug-In . SVG Version: 6.00 Build 0)  -->
<!DOCTYPE svg PUBLIC "-//W3C//DTD SVG 1.1//EN" "http://www.w3.org/Graphics/SVG/1.1/DTD/svg11.dtd">
<svg version="1.1" id="Layer_1" xmlns="http://www.w3.org/2000/svg" xmlns:xlink="http://www.w3.org/1999/xlink" x="0px" y="0px"
	 width="42.577px" height="67.087px" viewBox="0 0 42.577 67.087" enable-background="new 0 0 42.577 67.087" xml:space="preserve">
<polygon fill="#EDEDED" points="3.068,11.394 21.5,3.766 39.82,11.394 36.932,32.891 21.102,42.482 6.189,33.698 "/>
<polygon fill="#7C8FC0" points="4.861,34.78 1.504,10.207 21.51,1.725 21.51,4.983 4.785,12.071 7.627,32.833 12.283,35.249 
	11.645,30.6 21.51,28.964 21.51,65.67 8.428,36.618 "/>
<polygon fill="#F3A849" points="21.506,19.407 21.506,24.165 11.277,26.481 10.743,22.545 "/>
<polygon fill="#7C8FC0" points="21.506,9.848 21.506,14.644 10.225,18.675 9.698,14.833 "/>
<polygon fill="#566EB2" points="38.145,34.78 41.504,10.207 21.5,1.725 21.5,4.983 38.221,12.071 35.379,32.833 30.723,35.249 
	31.365,30.6 21.5,28.964 21.5,65.67 34.582,36.618 "/>
<polygon fill="#F1971F" points="21.503,19.407 21.503,24.165 31.73,26.481 32.264,22.545 "/>
<polygon fill="#566EB2" points="21.503,9.848 21.503,14.644 32.783,18.675 33.309,14.833 "/>
</svg>
