<?xml version="1.0" encoding="utf-8"?>
<!-- Generator: Adobe Illustrator 16.0.0, SVG Export Plug-In . SVG Version: 6.00 Build 0)  -->
<!DOCTYPE svg PUBLIC "-//W3C//DTD SVG 1.1//EN" "http://www.w3.org/Graphics/SVG/1.1/DTD/svg11.dtd">
<svg version="1.1" id="Layer_1" xmlns="http://www.w3.org/2000/svg" xmlns:xlink="http://www.w3.org/1999/xlink" x="0px" y="0px"
	 width="55.883px" height="61.064px" viewBox="0 0 55.883 61.064" enable-background="new 0 0 55.883 61.064" xml:space="preserve">
<rect x="6.56" y="7.273" fill="#FFFFFF" width="44.313" height="44.313"/>
<path fill="#556DB1" d="M6.271,17.811h3.235c1.692,0,3.063-1.371,3.063-3.063v-0.765c0-1.692-1.371-3.063-3.063-3.063H6.271
	c-1.692,0-3.063,1.371-3.063,3.063v0.765C3.207,16.44,4.578,17.811,6.271,17.811"/>
<path fill="#556DB1" d="M6.271,33.791h3.235c1.692,0,3.063-1.371,3.063-3.063v-0.766c0-1.691-1.371-3.063-3.063-3.063H6.271
	c-1.692,0-3.063,1.371-3.063,3.063v0.766C3.207,32.419,4.578,33.791,6.271,33.791"/>
<path fill="#556DB1" d="M9.506,49.769c1.692,0,3.063-1.371,3.063-3.063v-0.766c0-1.691-1.371-3.063-3.063-3.063H6.271
	c-1.692,0-3.063,1.371-3.063,3.063v0.766c0,1.691,1.371,3.063,3.063,3.063H9.506z"/>
<path fill="#556DB1" d="M48.946,5.532H9.268c-1.69,0-3.063,1.463-3.063,3.267v1.096c0.022,0,0.045-0.001,0.045-0.001h3.257
	c2.255,0,4.09,1.835,4.09,4.089v0.766c0,2.254-1.835,4.089-4.09,4.089H6.27c0,0-0.043-0.001-0.065-0.002v7.039
	c0.022-0.001,0.045-0.002,0.045-0.002h3.257c2.255,0,4.09,1.835,4.09,4.089v0.766c0,2.255-1.835,4.089-4.09,4.089H6.27
	c0,0-0.043-0.001-0.065-0.002v7.038c0.022,0,0.045-0.001,0.045-0.001h3.257c2.255,0,4.09,1.834,4.09,4.089v0.766
	c0,2.256-1.835,4.09-4.09,4.09H6.27c0,0-0.043-0.002-0.065-0.002v1.471c0,1.805,1.373,3.268,3.063,3.268h39.679
	c1.69,0,3.063-1.463,3.063-3.268V8.799C52.009,6.995,50.637,5.532,48.946,5.532 M30.776,17.812c4.619,0,8.363,3.744,8.363,8.363
	c0,4.62-3.744,8.364-8.363,8.364s-8.363-3.744-8.363-8.364C22.413,21.556,26.157,17.812,30.776,17.812 M43.13,41.739H18.423
	c-0.041-0.301-0.063-0.606-0.063-0.916c0-3.215,2.303-6.038,5.773-7.642c0.844,0.802,1.813,1.437,2.884,1.89
	c1.19,0.504,2.456,0.759,3.759,0.759s2.567-0.255,3.76-0.759c1.07-0.453,2.039-1.088,2.883-1.89
	c3.471,1.604,5.773,4.427,5.773,7.642C43.192,41.132,43.172,41.438,43.13,41.739"/>
</svg>
