<?xml version="1.0" encoding="utf-8"?>
<!-- Generator: Adobe Illustrator 16.0.0, SVG Export Plug-In . SVG Version: 6.00 Build 0)  -->
<!DOCTYPE svg PUBLIC "-//W3C//DTD SVG 1.1//EN" "http://www.w3.org/Graphics/SVG/1.1/DTD/svg11.dtd">
<svg version="1.1" id="Layer_1" xmlns="http://www.w3.org/2000/svg" xmlns:xlink="http://www.w3.org/1999/xlink" x="0px" y="0px"
	 width="94.117px" height="61.064px" viewBox="0 0 94.117 61.064" enable-background="new 0 0 94.117 61.064" xml:space="preserve">
<polygon fill="#FFFFFF" points="63.04,25.303 28.302,25.303 28.302,48.837 42.048,48.837 42.048,54.629 52.279,54.629 
	52.279,48.837 63.04,48.837 "/>
<path fill="#556DB1" d="M77.976,29.737h-1.85c-0.854,0-1.51-0.733-1.469-1.6c0.01-0.181,0.014-0.363,0.014-0.546
	c0-7.111-5.684-12.875-12.695-12.875c-2.57,0-4.955,0.781-6.953,2.114c-0.434,0.29-1.023,0.132-1.242-0.346
	C49.772,7.676,39.759,2.259,29.06,5.653c-5.572,1.768-10.048,6.086-12.164,11.604c-1.482,3.868-1.77,7.636-1.197,11.111
	c0.123,0.751-0.34,1.481-1.073,1.642c-5.331,1.165-9.358,5.996-9.358,11.738v1.641c0,6.183,4.988,11.242,11.086,11.242h14.379
	h11.316V43.845c0-0.218-0.174-0.395-0.389-0.395h-3.992c-0.318,0-0.502-0.369-0.313-0.629l9.496-13.031
	c0.155-0.214,0.471-0.214,0.627,0l9.496,13.031c0.189,0.26,0.006,0.629-0.313,0.629h-3.992c-0.215,0-0.39,0.177-0.39,0.395V54.63
	h25.697c6.096,0,11.084-5.059,11.084-11.242v-2.409C89.06,34.796,84.071,29.737,77.976,29.737"/>
</svg>
