<?xml version="1.0" encoding="utf-8"?>
<!-- Generator: Adobe Illustrator 16.0.0, SVG Export Plug-In . SVG Version: 6.00 Build 0)  -->
<!DOCTYPE svg PUBLIC "-//W3C//DTD SVG 1.1//EN" "http://www.w3.org/Graphics/SVG/1.1/DTD/svg11.dtd">
<svg version="1.1" id="Layer_1" xmlns="http://www.w3.org/2000/svg" xmlns:xlink="http://www.w3.org/1999/xlink" x="0px" y="0px"
	 width="94.793px" height="21.79px" viewBox="0 0 94.793 21.79" enable-background="new 0 0 94.793 21.79" xml:space="preserve">
<path fill="#873760" d="M53.124,18.298l2.97-14.829h6.75c3.033,0,4.282,1.326,3.749,3.977c-0.422,2.098-1.9,3.583-4.436,4.456
	l3.429,6.417h-3.209l-3.231-6.47l0.25-1.256c2.549-0.45,3.98-1.471,4.301-3.064c0.221-1.093-0.284-1.64-1.517-1.64h-3.771
	l-2.481,12.409H53.124z"/>
<path fill="#873760" d="M72.255,7.416c-3.482,0-5.58,1.775-6.293,5.327c-0.742,3.718,0.692,5.576,4.299,5.576
	c1.724,0,3.156-0.449,4.3-1.35l0.437-2.18c-1.283,0.9-2.645,1.349-4.093,1.349c-1.911,0-2.72-0.733-2.429-2.201h2.73
	c2.93,0,4.611-1.086,5.047-3.262C76.689,8.502,75.355,7.416,72.255,7.416 M73.585,10.749c-0.16,0.782-0.811,1.174-1.953,1.174H68.88
	c0.436-1.564,1.414-2.348,2.938-2.348C73.147,9.575,73.735,9.967,73.585,10.749"/>
<polygon fill="#873760" points="80.199,12.868 77.208,7.416 80.169,7.416 82.027,10.926 85.257,7.416 88.425,7.416 83.263,12.868 
	86.243,18.32 83.283,18.32 81.425,14.81 78.195,18.32 75.027,18.32 "/>
<polygon fill="#FFFFFF" points="14.958,17.067 14.718,18.106 6.367,18.106 9.58,4.192 10.639,4.192 7.667,17.067 "/>
<path fill="#FFFFFF" d="M25.026,12.913c-0.11,0.476-0.146,0.54-0.151,0.562h-8.07c-0.064,0.368-0.069,0.671-0.02,0.931
	c-0.167,2.034,1.081,2.813,3.115,2.813c1.277,0,2.612-0.26,3.588-0.736l-0.254,1.104c-1.079,0.454-2.47,0.671-3.66,0.671
	c-2.38,0-4.742-1.018-3.778-5.194c0.385-1.666,1.818-5.626,5.972-5.626C26.248,7.438,25.187,12.22,25.026,12.913 M17.025,12.522
	h6.988c0.12-0.519,0.809-4.067-2.544-4.067C19.197,8.455,17.723,9.97,17.025,12.522"/>
<path fill="#FFFFFF" d="M34.364,11.83l-0.74,3.202c-0.659,2.857-3.665,3.225-4.984,3.225c-1.363,0-4.27-0.433-3.616-3.268
	c0.755-3.267,4.83-3.397,5.803-3.397c1.407,0,2.13,0.151,2.461,0.216c0.509-2.207-0.318-3.311-2.698-3.311
	c-1.363,0-2.563,0.324-3.095,0.476l0.24-1.038c0.839-0.26,1.975-0.497,3.165-0.497C34.016,7.438,35.024,8.974,34.364,11.83
	 M33.084,12.782c-0.271-0.043-1.188-0.195-2.616-0.195c-1.32,0-3.9,0.303-4.384,2.402c-0.445,1.926,1.483,2.294,2.781,2.294
	c1.276,0,3.26-0.346,3.7-2.251L33.084,12.782z"/>
<path fill="#FFFFFF" d="M41.271,15.379c-0.389,1.688-1.969,2.9-4.479,2.9c-1.384,0-2.386-0.347-3.112-0.757l0.26-1.126
	c0.837,0.498,1.865,0.823,3.056,0.823c1.601,0,2.908-0.607,3.193-1.84c0.725-3.138-5.64-1.342-4.785-5.042
	c0.344-1.493,1.691-2.921,4.244-2.921c1.125,0,2.007,0.303,2.689,0.627l-0.246,1.062c-0.596-0.325-1.45-0.649-2.575-0.649
	c-1.386,0-2.716,0.519-3.031,1.882C35.895,12.891,42.21,11.312,41.271,15.379"/>
<path fill="#FFFFFF" d="M51.554,12.913c-0.109,0.476-0.145,0.54-0.15,0.562h-8.07c-0.063,0.368-0.068,0.671-0.021,0.931
	c-0.166,2.034,1.082,2.813,3.115,2.813c1.276,0,2.612-0.26,3.589-0.736l-0.255,1.104c-1.079,0.454-2.47,0.671-3.66,0.671
	c-2.38,0-4.741-1.018-3.776-5.194c0.383-1.666,1.817-5.626,5.971-5.626C52.775,7.438,51.714,12.22,51.554,12.913 M43.553,12.522
	h6.987c0.121-0.519,0.811-4.067-2.543-4.067C45.726,8.455,44.251,9.97,43.553,12.522"/>
</svg>
