<?xml version="1.0" encoding="utf-8"?>
<!-- Generator: Adobe Illustrator 16.0.0, SVG Export Plug-In . SVG Version: 6.00 Build 0)  -->
<!DOCTYPE svg PUBLIC "-//W3C//DTD SVG 1.1//EN" "http://www.w3.org/Graphics/SVG/1.1/DTD/svg11.dtd">
<svg version="1.1" id="Layer_1" xmlns="http://www.w3.org/2000/svg" xmlns:xlink="http://www.w3.org/1999/xlink" x="0px" y="0px"
	 width="188px" height="38.25px" viewBox="0 0 188 38.25" enable-background="new 0 0 188 38.25" xml:space="preserve">
<path fill="#87365F" d="M116.674,33.085l5.617-28.042h12.764c5.735,0,8.097,2.507,7.088,7.521c-0.798,3.968-3.593,6.775-8.385,8.425
	l6.481,12.137h-6.068l-6.109-12.235l0.474-2.375c4.816-0.852,7.527-2.782,8.131-5.794c0.417-2.068-0.537-3.101-2.868-3.101h-7.129
	l-4.693,23.465H116.674z"/>
<path fill="#87365F" d="M152.852,12.505c-6.587,0-10.554,3.357-11.901,10.074c-1.401,7.03,1.309,10.546,8.13,10.546
	c3.259,0,5.97-0.852,8.131-2.554l0.824-4.123c-2.423,1.701-5,2.553-7.737,2.553c-3.614,0-5.145-1.388-4.595-4.163h5.163
	c5.54,0,8.721-2.056,9.545-6.166C161.237,14.561,158.715,12.505,152.852,12.505 M155.365,18.809c-0.301,1.479-1.532,2.22-3.692,2.22
	h-5.204c0.823-2.959,2.676-4.438,5.558-4.438C154.539,16.59,155.651,17.328,155.365,18.809"/>
<polygon fill="#87365F" points="167.874,22.815 162.219,12.505 167.815,12.505 171.33,19.144 177.438,12.505 183.427,12.505 
	173.667,22.815 179.303,33.124 173.706,33.124 170.192,26.487 164.084,33.124 158.095,33.124 "/>
<polygon fill="#AE3E71" points="5.969,18.567 4.399,7.087 13.747,3.125 13.747,4.646 5.933,7.958 7.261,17.658 9.436,18.787 
	9.138,16.615 13.747,15.85 13.747,32.999 7.635,19.426 "/>
<polygon fill="#F2A749" points="13.745,11.386 13.745,13.607 8.966,14.69 8.716,12.851 "/>
<polygon fill="#AE3E71" points="13.745,6.919 13.745,9.16 8.474,11.043 8.229,9.248 "/>
<polygon fill="#87365F" points="21.519,18.567 23.088,7.087 13.741,3.125 13.741,4.646 21.555,7.958 20.227,17.658 18.052,18.787 
	18.351,16.615 13.741,15.85 13.741,32.999 19.854,19.426 "/>
<polygon fill="#F09621" points="13.743,11.386 13.743,13.607 18.521,14.69 18.771,12.851 "/>
<polygon fill="#87365F" points="13.743,6.919 13.743,9.16 19.014,11.043 19.258,9.248 "/>
<polygon fill="#221F1F" points="44.502,30.756 44.048,32.72 28.257,32.72 34.331,6.408 36.336,6.408 30.715,30.756 "/>
<path fill="#221F1F" d="M63.541,22.899c-0.207,0.9-0.275,1.022-0.285,1.063h-15.26c-0.121,0.695-0.131,1.268-0.039,1.761
	c-0.315,3.846,2.045,5.319,5.892,5.319c2.414,0,4.939-0.492,6.785-1.392l-0.481,2.087c-2.04,0.859-4.671,1.27-6.922,1.27
	c-4.5,0-8.965-1.925-7.144-9.822c0.729-3.151,3.439-10.638,11.294-10.638C65.851,12.548,63.845,21.59,63.541,22.899 M48.411,22.163
	h13.214c0.228-0.981,1.531-7.692-4.811-7.692C52.519,14.471,49.73,17.335,48.411,22.163"/>
<path fill="#221F1F" d="M81.2,20.854l-1.399,6.057c-1.247,5.4-6.931,6.098-9.426,6.098c-2.577,0-8.075-0.82-6.837-6.18
	c1.427-6.18,9.133-6.425,10.974-6.425c2.659,0,4.026,0.286,4.652,0.409c0.963-4.174-0.601-6.261-5.101-6.261
	c-2.578,0-4.848,0.614-5.854,0.9l0.453-1.965c1.587-0.49,3.735-0.939,5.986-0.939C80.539,12.548,82.447,15.452,81.2,20.854
	 M78.779,22.653c-0.514-0.08-2.247-0.367-4.948-0.367c-2.495,0-7.373,0.572-8.289,4.542c-0.841,3.641,2.804,4.337,5.259,4.337
	c2.413,0,6.164-0.655,6.996-4.255L78.779,22.653z"/>
<path fill="#221F1F" d="M94.259,27.564c-0.735,3.191-3.721,5.484-8.467,5.484c-2.618,0-4.512-0.656-5.888-1.433l0.49-2.129
	c1.583,0.941,3.528,1.557,5.779,1.557c3.027,0,5.5-1.147,6.039-3.479c1.37-5.934-10.665-2.537-9.049-9.535
	c0.65-2.823,3.198-5.522,8.025-5.522c2.128,0,3.797,0.571,5.086,1.186l-0.464,2.005c-1.127-0.614-2.743-1.227-4.872-1.227
	c-2.617,0-5.135,0.98-5.73,3.559C84.094,22.858,96.035,19.871,94.259,27.564"/>
<path fill="#221F1F" d="M113.705,22.899c-0.207,0.9-0.275,1.022-0.284,1.063H98.159c-0.12,0.695-0.13,1.268-0.038,1.761
	c-0.315,3.846,2.046,5.319,5.892,5.319c2.414,0,4.939-0.492,6.785-1.392l-0.481,2.087c-2.04,0.859-4.671,1.27-6.922,1.27
	c-4.5,0-8.965-1.925-7.143-9.822c0.728-3.151,3.438-10.638,11.294-10.638C116.015,12.548,114.009,21.59,113.705,22.899
	 M98.574,22.163h13.215c0.228-0.981,1.531-7.692-4.811-7.692C102.683,14.471,99.895,17.335,98.574,22.163"/>
</svg>
