<?xml version="1.0" encoding="utf-8"?>
<!-- Generator: Adobe Illustrator 16.0.0, SVG Export Plug-In . SVG Version: 6.00 Build 0)  -->
<!DOCTYPE svg PUBLIC "-//W3C//DTD SVG 1.1//EN" "http://www.w3.org/Graphics/SVG/1.1/DTD/svg11.dtd">
<svg version="1.1" id="Layer_1" xmlns="http://www.w3.org/2000/svg" xmlns:xlink="http://www.w3.org/1999/xlink" x="0px" y="0px"
	 width="100px" height="21.79px" viewBox="0 0 100 21.79" enable-background="new 0 0 100 21.79" xml:space="preserve">
<path fill="#808083" d="M55.729,17.765l2.971-14.829h6.75c3.033,0,4.281,1.326,3.748,3.977c-0.422,2.098-1.9,3.583-4.436,4.456
	l3.43,6.417h-3.209l-3.232-6.47L62,10.061c2.549-0.45,3.98-1.471,4.301-3.064c0.221-1.093-0.285-1.64-1.516-1.64h-3.771
	l-2.48,12.409H55.729z"/>
<path fill="#808083" d="M74.859,6.883c-3.482,0-5.58,1.775-6.293,5.327c-0.742,3.718,0.693,5.577,4.299,5.577
	c1.725,0,3.156-0.45,4.299-1.351l0.438-2.18c-1.283,0.9-2.645,1.35-4.092,1.35c-1.912,0-2.721-0.734-2.43-2.202h2.73
	c2.93,0,4.611-1.086,5.047-3.26C79.295,7.97,77.961,6.883,74.859,6.883 M76.189,10.216c-0.16,0.782-0.811,1.174-1.953,1.174h-2.752
	c0.436-1.565,1.414-2.348,2.939-2.348C75.752,9.042,76.34,9.434,76.189,10.216"/>
<polygon fill="#808083" points="82.805,12.334 79.813,6.883 82.773,6.883 84.633,10.393 87.861,6.883 91.029,6.883 85.867,12.334 
	88.848,17.787 85.889,17.787 84.029,14.276 80.801,17.787 77.633,17.787 "/>
<polygon fill="#BABABA" points="17.563,16.534 17.323,17.573 8.972,17.573 12.185,3.659 13.244,3.659 10.271,16.534 "/>
<path fill="#BABABA" d="M27.631,12.379c-0.11,0.476-0.146,0.54-0.151,0.562h-8.07c-0.064,0.368-0.069,0.671-0.02,0.931
	c-0.167,2.034,1.081,2.813,3.115,2.813c1.277,0,2.612-0.26,3.588-0.736l-0.254,1.104c-1.079,0.454-2.471,0.671-3.661,0.671
	c-2.38,0-4.741-1.019-3.777-5.194c0.385-1.666,1.818-5.626,5.972-5.626C28.852,6.904,27.791,11.687,27.631,12.379 M19.63,11.989
	h6.988c0.12-0.519,0.809-4.068-2.544-4.068C21.802,7.921,20.327,9.437,19.63,11.989"/>
<path fill="#BABABA" d="M36.969,11.297l-0.74,3.202c-0.659,2.857-3.665,3.225-4.984,3.225c-1.363,0-4.27-0.433-3.616-3.268
	c0.755-3.267,4.83-3.397,5.803-3.397c1.407,0,2.13,0.151,2.461,0.216c0.509-2.207-0.318-3.311-2.698-3.311
	c-1.363,0-2.563,0.324-3.095,0.476l0.24-1.038c0.839-0.26,1.975-0.497,3.165-0.497C36.62,6.905,37.629,8.44,36.969,11.297
	 M35.689,12.249c-0.271-0.043-1.188-0.195-2.616-0.195c-1.32,0-3.9,0.303-4.384,2.402c-0.445,1.926,1.483,2.294,2.781,2.294
	c1.276,0,3.26-0.346,3.7-2.251L35.689,12.249z"/>
<path fill="#BABABA" d="M43.875,14.846c-0.389,1.688-1.968,2.9-4.478,2.9c-1.384,0-2.386-0.347-3.113-0.757l0.26-1.126
	c0.837,0.498,1.865,0.823,3.055,0.823c1.601,0,2.908-0.607,3.193-1.84c0.725-3.138-5.64-1.342-4.785-5.042
	c0.344-1.493,1.691-2.921,4.244-2.921c1.125,0,2.008,0.302,2.689,0.627l-0.245,1.062c-0.596-0.325-1.45-0.649-2.575-0.649
	c-1.386,0-2.717,0.519-3.032,1.882C38.499,12.357,44.814,10.778,43.875,14.846"/>
<path fill="#BABABA" d="M54.158,12.379c-0.109,0.476-0.145,0.54-0.15,0.562h-8.071c-0.063,0.368-0.068,0.671-0.02,0.931
	c-0.166,2.034,1.082,2.813,3.115,2.813c1.276,0,2.612-0.26,3.588-0.736l-0.254,1.104c-1.08,0.454-2.471,0.671-3.661,0.671
	c-2.381,0-4.741-1.019-3.777-5.194c0.384-1.666,1.818-5.626,5.972-5.626C55.381,6.904,54.32,11.687,54.158,12.379 M46.158,11.989
	h6.987c0.121-0.519,0.811-4.068-2.543-4.068C48.33,7.921,46.855,9.437,46.158,11.989"/>
</svg>
