<?xml version="1.0" encoding="utf-8"?>
<!-- Generator: Adobe Illustrator 16.0.0, SVG Export Plug-In . SVG Version: 6.00 Build 0)  -->
<!DOCTYPE svg PUBLIC "-//W3C//DTD SVG 1.1//EN" "http://www.w3.org/Graphics/SVG/1.1/DTD/svg11.dtd">
<svg version="1.1" id="Layer_1" xmlns="http://www.w3.org/2000/svg" xmlns:xlink="http://www.w3.org/1999/xlink" x="0px" y="0px"
	 width="107.678px" height="21.79px" viewBox="0 0 107.678 21.79" enable-background="new 0 0 107.678 21.79" xml:space="preserve">
<path fill="#87365F" d="M67.439,19.414l3.198-15.969h7.269c3.266,0,4.611,1.428,4.037,4.283c-0.455,2.26-2.047,3.858-4.775,4.798
	l3.691,6.911h-3.456l-3.479-6.967l0.27-1.354c2.744-0.484,4.286-1.584,4.63-3.3c0.238-1.177-0.305-1.766-1.633-1.766h-4.06
	l-2.673,13.362H67.439z"/>
<path fill="#87365F" d="M88.04,7.695c-3.75,0-6.009,1.912-6.776,5.736c-0.798,4.004,0.746,6.005,4.63,6.005
	c1.855,0,3.398-0.483,4.63-1.453l0.47-2.348c-1.381,0.968-2.848,1.453-4.407,1.453c-2.057,0-2.929-0.79-2.615-2.371h2.939
	c3.155,0,4.966-1.17,5.436-3.511C92.816,8.866,91.38,7.695,88.04,7.695 M89.473,11.285c-0.173,0.842-0.873,1.264-2.104,1.264h-2.963
	c0.469-1.685,1.523-2.528,3.165-2.528C89.002,10.02,89.635,10.442,89.473,11.285"/>
<polygon fill="#87365F" points="96.596,13.566 93.376,7.695 96.562,7.695 98.563,11.475 102.042,7.695 105.453,7.695 99.895,13.566 
	103.104,19.437 99.917,19.437 97.916,15.657 94.438,19.437 91.026,19.437 "/>
<polygon fill="#AE3E71" points="4.397,11.147 3.504,4.609 8.826,2.353 8.826,3.22 4.377,5.105 5.133,10.629 6.371,11.271 
	6.202,10.036 8.826,9.599 8.826,19.366 5.347,11.636 "/>
<polygon fill="#F2A749" points="8.825,7.057 8.825,8.324 6.104,8.939 5.962,7.892 "/>
<polygon fill="#AE3E71" points="8.825,4.514 8.825,5.79 5.824,6.863 5.685,5.84 "/>
<polygon fill="#87365F" points="13.252,11.147 14.146,4.609 8.824,2.353 8.824,3.22 13.272,5.105 12.517,10.629 11.278,11.271 
	11.448,10.036 8.824,9.599 8.824,19.366 12.305,11.636 "/>
<polygon fill="#F09621" points="8.824,7.057 8.824,8.324 11.546,8.939 11.688,7.892 "/>
<polygon fill="#87365F" points="8.824,4.514 8.824,5.79 11.826,6.863 11.966,5.84 "/>
<polygon fill="#221F1F" points="26.34,18.088 26.081,19.207 17.089,19.207 20.548,4.223 21.69,4.223 18.489,18.088 "/>
<path fill="#221F1F" d="M37.183,13.615c-0.118,0.512-0.157,0.582-0.163,0.604H28.33c-0.068,0.397-0.074,0.723-0.022,1.003
	c-0.179,2.19,1.165,3.029,3.354,3.029c1.375,0,2.813-0.28,3.864-0.792l-0.273,1.188c-1.162,0.489-2.66,0.724-3.942,0.724
	c-2.563,0-5.105-1.096-4.067-5.593c0.414-1.795,1.958-6.06,6.432-6.06C38.498,7.718,37.354,12.869,37.183,13.615 M28.566,13.195
	h7.525c0.129-0.56,0.872-4.381-2.74-4.381C30.905,8.814,29.317,10.446,28.566,13.195"/>
<path fill="#221F1F" d="M47.238,12.449l-0.797,3.448c-0.71,3.076-3.946,3.474-5.367,3.474c-1.468,0-4.599-0.468-3.894-3.52
	c0.813-3.519,5.2-3.658,6.249-3.658c1.514,0,2.293,0.162,2.649,0.232c0.549-2.376-0.343-3.565-2.905-3.565
	c-1.467,0-2.76,0.351-3.333,0.514l0.258-1.119c0.904-0.28,2.127-0.535,3.409-0.535C46.861,7.719,47.949,9.374,47.238,12.449
	 M45.859,13.474c-0.292-0.046-1.279-0.21-2.817-0.21c-1.42,0-4.198,0.327-4.72,2.587c-0.479,2.073,1.596,2.47,2.994,2.47
	c1.374,0,3.511-0.373,3.984-2.424L45.859,13.474z"/>
<path fill="#221F1F" d="M54.675,16.271c-0.419,1.816-2.119,3.123-4.822,3.123c-1.491,0-2.568-0.374-3.352-0.816l0.279-1.212
	c0.9,0.536,2.009,0.886,3.291,0.886c1.724,0,3.132-0.653,3.438-1.98c0.78-3.38-6.073-1.445-5.153-5.431
	c0.371-1.606,1.821-3.145,4.57-3.145c1.212,0,2.162,0.326,2.896,0.675L55.56,9.512c-0.642-0.349-1.563-0.697-2.774-0.697
	c-1.491,0-2.924,0.558-3.264,2.025C48.886,13.59,55.686,11.889,54.675,16.271"/>
<path fill="#221F1F" d="M65.748,13.615c-0.117,0.512-0.156,0.582-0.162,0.604h-8.689c-0.069,0.397-0.074,0.723-0.022,1.003
	c-0.18,2.19,1.165,3.029,3.355,3.029c1.374,0,2.813-0.28,3.864-0.792l-0.275,1.188c-1.161,0.489-2.66,0.724-3.941,0.724
	c-2.563,0-5.104-1.096-4.067-5.593c0.415-1.795,1.958-6.06,6.432-6.06C67.063,7.718,65.922,12.869,65.748,13.615 M57.133,13.195
	h7.524c0.13-0.56,0.872-4.381-2.739-4.381C59.473,8.814,57.885,10.446,57.133,13.195"/>
</svg>
