<?xml version="1.0" encoding="utf-8"?>
<!-- Generator: Adobe Illustrator 16.0.0, SVG Export Plug-In . SVG Version: 6.00 Build 0)  -->
<!DOCTYPE svg PUBLIC "-//W3C//DTD SVG 1.1//EN" "http://www.w3.org/Graphics/SVG/1.1/DTD/svg11.dtd">
<svg version="1.1" id="Layer_1" xmlns="http://www.w3.org/2000/svg" xmlns:xlink="http://www.w3.org/1999/xlink" x="0px" y="0px"
	 width="55.883px" height="61.064px" viewBox="0 0 55.883 61.064" enable-background="new 0 0 55.883 61.064" xml:space="preserve">
<rect x="19.52" y="32.584" fill="#FFFFFF" width="17.008" height="12.717"/>
<path fill="#FFFFFF" d="M20.208,19.96c0,1.418-1.148,2.567-2.566,2.567s-2.566-1.149-2.566-2.567c0-1.417,1.148-2.566,2.566-2.566
	S20.208,18.542,20.208,19.96"/>
<path fill="#556DB1" d="M15.767,15.874c-3.456,0-6.257,2.802-6.257,6.257c0,0.392,0.036,0.775,0.104,1.146L2,30.892v3.755
	c0,0.691,0.56,1.251,1.252,1.251h1.252v-1.251h2.502v-2.502H9.51v-2.503h2.503l1.623-1.624c0.666,0.241,1.384,0.373,2.131,0.373
	c3.457,0,6.258-2.802,6.258-6.258C22.024,18.675,19.224,15.874,15.767,15.874 M17.642,22.133c-1.037,0-1.877-0.84-1.877-1.877
	s0.84-1.877,1.877-1.877c1.038,0,1.878,0.84,1.878,1.877S18.68,22.133,17.642,22.133"/>
<path fill="#556DB1" d="M43.477,14.447c-5.697,0-10.323,4.626-10.323,10.324v4.662h-0.183H20.104h-3.884h-2.222v19.093h25.077
	V29.433h-2.038v-4.662c0-3.548,2.891-6.433,6.438-6.433c3.543,0,6.428,2.884,6.428,6.433v4.662l3.892-0.007v-4.655
	C53.803,19.073,49.17,14.447,43.477,14.447 M28.314,43.285h-3.54l0.528-5.233c-0.658-0.407-1.092-1.135-1.092-1.97
	c0-1.286,1.04-2.329,2.333-2.329c1.285,0,2.329,1.043,2.329,2.329c0,0.835-0.438,1.563-1.101,1.97L28.314,43.285z"/>
</svg>
