<?xml version="1.0" encoding="utf-8"?>
<!-- Generator: Adobe Illustrator 16.0.0, SVG Export Plug-In . SVG Version: 6.00 Build 0)  -->
<!DOCTYPE svg PUBLIC "-//W3C//DTD SVG 1.1//EN" "http://www.w3.org/Graphics/SVG/1.1/DTD/svg11.dtd">
<svg version="1.1" id="Layer_1" xmlns="http://www.w3.org/2000/svg" xmlns:xlink="http://www.w3.org/1999/xlink" x="0px" y="0px"
	 width="100px" height="21.79px" viewBox="0 0 100 21.79" enable-background="new 0 0 100 21.79" xml:space="preserve">
<path fill="#586EB2" d="M61.295,19.087l2.97-14.829h6.75c3.032,0,4.28,1.326,3.749,3.977c-0.424,2.098-1.9,3.583-4.436,4.456
	l3.428,6.417h-3.209l-3.23-6.47l0.25-1.256c2.549-0.45,3.98-1.471,4.301-3.064c0.221-1.093-0.285-1.64-1.518-1.64h-3.77
	l-2.481,12.409H61.295z"/>
<path fill="#586EB2" d="M80.426,8.206c-3.482,0-5.58,1.775-6.293,5.327c-0.742,3.718,0.691,5.576,4.299,5.576
	c1.723,0,3.156-0.45,4.299-1.35l0.436-2.18c-1.281,0.9-2.643,1.349-4.092,1.349c-1.91,0-2.719-0.733-2.428-2.201h2.729
	c2.932,0,4.613-1.086,5.049-3.26S83.525,8.206,80.426,8.206 M81.756,11.539c-0.16,0.782-0.811,1.174-1.953,1.174h-2.752
	c0.436-1.565,1.416-2.348,2.938-2.348C81.318,10.365,81.906,10.756,81.756,11.539"/>
<polygon fill="#586EB2" points="88.369,13.657 85.379,8.205 88.338,8.205 90.197,11.715 93.428,8.205 96.596,8.205 91.434,13.657 
	94.414,19.109 91.453,19.109 89.596,15.599 86.365,19.109 83.199,19.109 "/>
<polygon fill="#FFFFFF" points="22.021,4.925 18.809,18.838 17.727,18.838 20.53,6.7 13.534,14.229 10.015,6.7 7.212,18.838 
	6.153,18.838 9.365,4.925 10.512,4.925 13.944,12.456 20.853,4.925 "/>
<path fill="#FFFFFF" d="M29.974,12.563l-0.74,3.203c-0.66,2.856-3.665,3.224-4.985,3.224c-1.363,0-4.27-0.433-3.615-3.268
	c0.754-3.268,4.83-3.397,5.803-3.397c1.407,0,2.129,0.151,2.46,0.216c0.509-2.206-0.318-3.31-2.698-3.31
	c-1.362,0-2.562,0.324-3.095,0.476l0.24-1.039c0.839-0.259,1.975-0.497,3.165-0.497C29.624,8.171,30.632,9.708,29.974,12.563
	 M28.693,13.515c-0.271-0.043-1.189-0.194-2.617-0.194c-1.319,0-3.898,0.303-4.383,2.402c-0.445,1.925,1.482,2.293,2.781,2.293
	c1.276,0,3.26-0.346,3.699-2.25L28.693,13.515z"/>
<path fill="#FFFFFF" d="M32.957,9.859l-2.074,8.98h-1.059l2.233-9.672c0.665-0.26,2.756-0.974,5.162-0.995L36.98,9.209
	C35.325,9.253,33.834,9.621,32.957,9.859"/>
<polygon fill="#FFFFFF" points="43.583,18.838 42.155,18.838 38.957,13.862 37.094,15.463 36.314,18.838 35.232,18.838 38.59,4.298 
	39.672,4.298 37.443,13.949 43.973,8.344 45.422,8.344 39.845,13.105 "/>
<path fill="#FFFFFF" d="M53.178,13.646c-0.109,0.476-0.146,0.54-0.15,0.562h-8.07c-0.064,0.368-0.068,0.671-0.02,0.931
	c-0.167,2.034,1.081,2.813,3.115,2.813c1.277,0,2.613-0.26,3.588-0.735l-0.256,1.103c-1.078,0.455-2.47,0.672-3.66,0.672
	c-2.38,0-4.741-1.017-3.776-5.192c0.384-1.667,1.817-5.627,5.971-5.627C54.398,8.171,53.338,12.954,53.178,13.646 M45.177,13.256
	h6.988c0.12-0.519,0.81-4.068-2.544-4.068C47.349,9.188,45.874,10.703,45.177,13.256"/>
<path fill="#FFFFFF" d="M57.699,17.779l-0.236,1.017c-0.436,0.108-0.932,0.195-1.451,0.195c-0.801,0-2.727-0.087-2.122-2.706
	l1.612-6.988h-1.687l0.22-0.953h1.688l0.684-2.964h1.082l-0.684,2.964h3.029l-0.221,0.953h-3.029l-1.603,6.945
	c-0.33,1.429,0.417,1.753,1.392,1.753C56.869,17.995,57.301,17.909,57.699,17.779"/>
</svg>
