<?xml version="1.0" encoding="utf-8"?>
<!-- Generator: Adobe Illustrator 16.0.0, SVG Export Plug-In . SVG Version: 6.00 Build 0)  -->
<!DOCTYPE svg PUBLIC "-//W3C//DTD SVG 1.1//EN" "http://www.w3.org/Graphics/SVG/1.1/DTD/svg11.dtd">
<svg version="1.1" id="Layer_1" xmlns="http://www.w3.org/2000/svg" xmlns:xlink="http://www.w3.org/1999/xlink" x="0px" y="0px"
	 width="94.793px" height="21.79px" viewBox="0 0 94.793 21.79" enable-background="new 0 0 94.793 21.79" xml:space="preserve">
<path fill="#808083" d="M56.523,18.298L59.494,3.47h6.75c3.033,0,4.281,1.326,3.748,3.977c-0.422,2.098-1.9,3.583-4.435,4.456
	l3.429,6.417h-3.211l-3.229-6.47l0.25-1.256c2.548-0.45,3.979-1.471,4.3-3.064c0.221-1.093-0.283-1.64-1.518-1.64h-3.77
	l-2.48,12.409H56.523z"/>
<path fill="#808083" d="M75.654,7.417c-3.482,0-5.58,1.775-6.293,5.327c-0.741,3.718,0.693,5.576,4.299,5.576
	c1.724,0,3.156-0.45,4.3-1.35l0.437-2.18c-1.283,0.9-2.645,1.349-4.092,1.349c-1.912,0-2.721-0.733-2.43-2.201h2.73
	c2.93,0,4.611-1.086,5.047-3.26C80.089,8.503,78.755,7.417,75.654,7.417 M76.984,10.75c-0.159,0.782-0.811,1.174-1.953,1.174h-2.752
	c0.436-1.565,1.416-2.348,2.938-2.348C76.547,9.576,77.135,9.967,76.984,10.75"/>
<polygon fill="#808083" points="83.6,12.868 80.607,7.416 83.568,7.416 85.427,10.926 88.656,7.416 91.824,7.416 86.662,12.868 
	89.643,18.32 86.684,18.32 84.824,14.81 81.595,18.32 78.428,18.32 "/>
<polygon fill="#BABABA" points="19.518,3.69 16.306,17.604 15.224,17.604 18.027,5.465 11.031,12.995 7.512,5.465 4.709,17.604 
	3.65,17.604 6.862,3.69 8.009,3.69 11.441,11.221 18.35,3.69 "/>
<path fill="#BABABA" d="M27.471,11.329l-0.74,3.203c-0.66,2.856-3.665,3.224-4.985,3.224c-1.363,0-4.27-0.433-3.615-3.268
	c0.754-3.268,4.83-3.397,5.803-3.397c1.407,0,2.129,0.151,2.46,0.216c0.509-2.206-0.318-3.31-2.698-3.31
	c-1.362,0-2.562,0.324-3.095,0.476l0.24-1.039c0.839-0.259,1.975-0.497,3.165-0.497C27.121,6.937,28.13,8.473,27.471,11.329
	 M26.191,12.28c-0.271-0.043-1.189-0.194-2.617-0.194c-1.319,0-3.898,0.303-4.383,2.402c-0.445,1.925,1.482,2.293,2.781,2.293
	c1.276,0,3.26-0.346,3.699-2.25L26.191,12.28z"/>
<path fill="#BABABA" d="M30.455,8.624l-2.074,8.98h-1.059l2.233-9.672c0.665-0.26,2.756-0.974,5.162-0.995l-0.239,1.038
	C32.822,8.019,31.332,8.386,30.455,8.624"/>
<polygon fill="#BABABA" points="41.081,17.604 39.653,17.604 36.454,12.627 34.592,14.229 33.812,17.604 32.73,17.604 36.088,3.063 
	37.17,3.063 34.941,12.714 41.471,7.109 42.92,7.109 37.343,11.87 "/>
<path fill="#BABABA" d="M50.676,12.411c-0.11,0.476-0.146,0.54-0.151,0.562h-8.07c-0.064,0.368-0.068,0.671-0.02,0.931
	c-0.167,2.034,1.081,2.813,3.115,2.813c1.277,0,2.613-0.26,3.588-0.735l-0.255,1.103c-1.078,0.455-2.47,0.672-3.66,0.672
	c-2.38,0-4.741-1.017-3.776-5.192c0.384-1.667,1.817-5.627,5.971-5.627C51.896,6.936,50.836,11.719,50.676,12.411 M42.675,12.021
	h6.987c0.121-0.519,0.81-4.068-2.543-4.068C44.847,7.953,43.372,9.468,42.675,12.021"/>
<path fill="#BABABA" d="M55.196,16.544l-0.235,1.017c-0.436,0.108-0.932,0.195-1.451,0.195c-0.801,0-2.728-0.087-2.123-2.706
	L53,8.062h-1.688l0.221-0.953h1.688l0.684-2.964h1.082l-0.684,2.964h3.028l-0.22,0.953h-3.029l-1.604,6.945
	c-0.33,1.429,0.418,1.753,1.392,1.753C54.367,16.76,54.798,16.674,55.196,16.544"/>
</svg>
