<?xml version="1.0" encoding="utf-8"?>
<!-- Generator: Adobe Illustrator 16.0.0, SVG Export Plug-In . SVG Version: 6.00 Build 0)  -->
<!DOCTYPE svg PUBLIC "-//W3C//DTD SVG 1.1//EN" "http://www.w3.org/Graphics/SVG/1.1/DTD/svg11.dtd">
<svg version="1.1" id="Layer_1" xmlns="http://www.w3.org/2000/svg" xmlns:xlink="http://www.w3.org/1999/xlink" x="0px" y="0px"
	 width="110.619px" height="21.79px" viewBox="0 0 110.619 21.79" enable-background="new 0 0 110.619 21.79" xml:space="preserve">
<path fill="#5ABB67" d="M72.595,18.523l2.97-14.829h6.75c3.033,0,4.281,1.326,3.748,3.977c-0.422,2.098-1.899,3.583-4.434,4.456
	l3.428,6.417h-3.21l-3.229-6.47l0.25-1.256c2.548-0.45,3.979-1.471,4.3-3.064c0.221-1.093-0.284-1.64-1.517-1.64H77.88
	l-2.481,12.409H72.595z"/>
<path fill="#5ABB67" d="M91.725,7.642c-3.481,0-5.58,1.775-6.293,5.327c-0.74,3.718,0.693,5.576,4.299,5.576
	c1.725,0,3.158-0.449,4.301-1.35l0.436-2.18c-1.281,0.9-2.644,1.349-4.092,1.349c-1.91,0-2.72-0.733-2.429-2.201h2.729
	c2.93,0,4.612-1.086,5.047-3.26C96.16,8.729,94.826,7.642,91.725,7.642 M93.055,10.975c-0.158,0.782-0.81,1.174-1.953,1.174H88.35
	c0.437-1.565,1.416-2.348,2.939-2.348C92.618,9.801,93.206,10.192,93.055,10.975"/>
<polygon fill="#5ABB67" points="99.67,13.093 96.679,7.641 99.639,7.641 101.498,11.151 104.729,7.641 107.895,7.641 
	102.732,13.093 105.714,18.545 102.754,18.545 100.896,15.035 97.666,18.545 94.499,18.545 "/>
<path fill="#FFFFFF" d="M11.386,18.339L9.08,12.808H5.248L3.97,18.339H2.935L6.01,5.018h4.723c2.817,0,4.092,1.388,3.527,3.833
	c-0.636,2.755-2.95,3.626-4.065,3.791l2.393,5.697H11.386z M6.821,5.991l-1.349,5.842h3.625c2.652,0,3.75-1.346,4.113-2.921
	c0.345-1.492-0.009-2.921-2.764-2.921H6.821z"/>
<path fill="#FFFFFF" d="M22.725,13.367c-0.105,0.456-0.14,0.517-0.145,0.538h-7.726c-0.061,0.352-0.066,0.643-0.02,0.891
	c-0.159,1.947,1.036,2.693,2.983,2.693c1.222,0,2.502-0.249,3.435-0.704l-0.244,1.056c-1.032,0.435-2.364,0.643-3.503,0.643
	c-2.279,0-4.54-0.974-3.617-4.972c0.368-1.596,1.741-5.387,5.718-5.387C23.894,8.125,22.878,12.703,22.725,13.367 M15.064,12.994
	h6.691C21.87,12.496,22.53,9.1,19.319,9.1C17.144,9.1,15.732,10.549,15.064,12.994"/>
<path fill="#FFFFFF" d="M29.471,15.729c-0.373,1.616-1.883,2.776-4.286,2.776c-1.326,0-2.286-0.331-2.982-0.726l0.249-1.077
	c0.802,0.476,1.786,0.787,2.925,0.787c1.533,0,2.786-0.58,3.058-1.761c0.694-3.004-5.4-1.285-4.582-4.827
	c0.33-1.43,1.62-2.797,4.064-2.797c1.077,0,1.921,0.29,2.575,0.601l-0.234,1.015c-0.571-0.311-1.39-0.622-2.467-0.622
	c-1.325,0-2.601,0.498-2.902,1.803C24.325,13.347,30.37,11.834,29.471,15.729"/>
<path fill="#FFFFFF" d="M39.441,13.367c-0.105,0.456-0.14,0.517-0.145,0.538H31.57c-0.061,0.352-0.066,0.643-0.02,0.891
	c-0.159,1.947,1.036,2.693,2.983,2.693c1.222,0,2.502-0.249,3.435-0.704l-0.243,1.056c-1.033,0.435-2.365,0.643-3.504,0.643
	c-2.279,0-4.54-0.974-3.617-4.972c0.368-1.596,1.741-5.387,5.718-5.387C40.61,8.125,39.594,12.703,39.441,13.367 M31.78,12.994
	h6.691c0.115-0.498,0.775-3.895-2.436-3.895C33.86,9.1,32.448,10.549,31.78,12.994"/>
<path fill="#FFFFFF" d="M48.483,12.331l-0.707,3.065c-0.632,2.735-3.509,3.087-4.773,3.087c-1.305,0-4.089-0.415-3.463-3.128
	c0.723-3.129,4.625-3.253,5.557-3.253c1.347,0,2.039,0.146,2.356,0.208c0.487-2.114-0.304-3.17-2.583-3.17
	c-1.305,0-2.454,0.31-2.964,0.456l0.23-0.995c0.803-0.248,1.891-0.476,3.03-0.476C48.149,8.126,49.115,9.597,48.483,12.331
	 M47.259,13.243c-0.26-0.042-1.138-0.187-2.505-0.187c-1.263,0-3.734,0.291-4.197,2.3c-0.426,1.844,1.419,2.196,2.662,2.196
	c1.222,0,3.122-0.331,3.543-2.155L47.259,13.243z"/>
<path fill="#FFFFFF" d="M51.463,9.741l-1.984,8.598h-1.015l2.138-9.26c0.637-0.249,2.639-0.932,4.943-0.953l-0.23,0.994
	C53.731,9.162,52.303,9.514,51.463,9.741"/>
<path fill="#FFFFFF" d="M57.955,17.51c0.953,0,1.97-0.187,2.941-0.539l-0.229,0.994c-1.014,0.353-2.051,0.539-3.045,0.539
	c-2.135,0-4.502-0.87-3.502-5.199c0.994-4.311,3.769-5.201,5.902-5.201c0.994,0,1.941,0.207,2.796,0.539l-0.229,0.994
	C61.775,9.307,60.851,9.1,59.897,9.1c-2.278,0-4.034,1.057-4.762,4.206C54.404,16.475,55.677,17.51,57.955,17.51"/>
<path fill="#FFFFFF" d="M71.074,12.186l-1.42,6.153h-1.016l1.42-6.153c0.488-2.112-0.291-3.045-2.196-3.045
	c-1.284,0-2.576,0.394-3.513,0.767l-1.945,8.432h-1.036l3.214-13.922h1.036L64.58,8.913c1.002-0.395,2.32-0.808,3.646-0.808
	C70.629,8.105,71.696,9.493,71.074,12.186"/>
</svg>
