<?xml version="1.0" encoding="utf-8"?>
<!-- Generator: Adobe Illustrator 16.0.0, SVG Export Plug-In . SVG Version: 6.00 Build 0)  -->
<!DOCTYPE svg PUBLIC "-//W3C//DTD SVG 1.1//EN" "http://www.w3.org/Graphics/SVG/1.1/DTD/svg11.dtd">
<svg version="1.1" id="Layer_1" xmlns="http://www.w3.org/2000/svg" xmlns:xlink="http://www.w3.org/1999/xlink" x="0px" y="0px"
	 width="129.387px" height="21.79px" viewBox="0 0 129.387 21.79" enable-background="new 0 0 129.387 21.79" xml:space="preserve">
<path fill="#44CA67" d="M90.371,19.061L93.57,3.092h7.27c3.266,0,4.609,1.428,4.035,4.283c-0.453,2.259-2.045,3.857-4.773,4.798
	l3.689,6.911h-3.455l-3.479-6.967l0.268-1.354c2.744-0.485,4.287-1.585,4.633-3.3c0.236-1.177-0.307-1.767-1.635-1.767h-4.059
	l-2.674,13.363H90.371z"/>
<path fill="#44CA67" d="M110.973,7.341c-3.75,0-6.008,1.912-6.777,5.737c-0.797,4.004,0.746,6.005,4.631,6.005
	c1.855,0,3.398-0.484,4.631-1.454l0.469-2.347c-1.381,0.968-2.848,1.453-4.406,1.453c-2.059,0-2.93-0.79-2.617-2.371h2.941
	c3.154,0,4.965-1.17,5.434-3.512C115.75,8.512,114.313,7.341,110.973,7.341 M112.406,10.931c-0.174,0.843-0.873,1.265-2.104,1.265
	h-2.963c0.469-1.686,1.523-2.528,3.164-2.528C111.936,9.667,112.568,10.088,112.406,10.931"/>
<polygon fill="#44CA67" points="119.529,13.213 116.309,7.342 119.494,7.342 121.496,11.121 124.975,7.342 128.387,7.342 
	122.828,13.213 126.037,19.084 122.85,19.084 120.85,15.304 117.371,19.084 113.959,19.084 "/>
<polygon fill="#86E298" points="2.606,10.794 1.712,4.256 7.035,2 7.035,2.867 2.585,4.752 3.341,10.275 4.58,10.918 4.411,9.682 
	7.035,9.246 7.035,19.012 3.555,11.283 "/>
<polygon fill="#F3A849" points="7.035,6.704 7.035,7.97 4.313,8.586 4.17,7.539 "/>
<polygon fill="#86E298" points="7.035,4.16 7.035,5.437 4.032,6.51 3.893,5.486 "/>
<polygon fill="#44CA67" points="11.46,10.794 12.354,4.256 7.033,2 7.033,2.867 11.481,4.752 10.725,10.275 9.487,10.918 
	9.657,9.682 7.033,9.246 7.033,19.012 10.513,11.283 "/>
<polygon fill="#F1971F" points="7.034,6.704 7.034,7.97 9.754,8.586 9.896,7.539 "/>
<polygon fill="#44CA67" points="7.034,4.16 7.034,5.437 10.035,6.51 10.174,5.486 "/>
<path fill="#231F20" d="M24.457,18.862l-2.483-5.957h-4.127l-1.375,5.957h-1.115l3.312-14.347h5.086
	c3.033,0,4.406,1.495,3.799,4.127c-0.685,2.969-3.176,3.905-4.378,4.083l2.577,6.137H24.457z M19.541,5.565l-1.452,6.291h3.903
	c2.856,0,4.038-1.45,4.43-3.146c0.371-1.606-0.01-3.145-2.977-3.145H19.541z"/>
<path fill="#231F20" d="M36.667,13.507c-0.113,0.491-0.15,0.559-0.156,0.581h-8.32c-0.065,0.379-0.07,0.691-0.021,0.959
	c-0.172,2.097,1.115,2.9,3.212,2.9c1.316,0,2.694-0.269,3.699-0.76l-0.263,1.139c-1.111,0.469-2.546,0.691-3.773,0.691
	c-2.454,0-4.889-1.049-3.895-5.354c0.396-1.718,1.875-5.801,6.157-5.801C37.926,7.863,36.833,12.793,36.667,13.507 M28.417,13.105
	h7.205C35.747,12.57,36.458,8.911,33,8.911C30.658,8.911,29.136,10.473,28.417,13.105"/>
<path fill="#231F20" d="M43.932,16.051c-0.402,1.74-2.028,2.989-4.616,2.989c-1.428,0-2.461-0.356-3.211-0.78l0.269-1.16
	c0.863,0.513,1.924,0.847,3.15,0.847c1.65,0,2.999-0.624,3.293-1.896c0.747-3.235-5.815-1.383-4.935-5.198
	c0.355-1.54,1.744-3.012,4.376-3.012c1.161,0,2.07,0.312,2.772,0.646l-0.252,1.094c-0.613-0.336-1.496-0.67-2.655-0.67
	c-1.429,0-2.802,0.535-3.125,1.941C38.39,13.485,44.901,11.856,43.932,16.051"/>
<path fill="#231F20" d="M54.67,13.507c-0.113,0.491-0.152,0.559-0.156,0.581h-8.322c-0.065,0.379-0.07,0.691-0.021,0.959
	c-0.172,2.097,1.115,2.9,3.213,2.9c1.314,0,2.693-0.269,3.699-0.76l-0.264,1.139c-1.111,0.469-2.547,0.691-3.773,0.691
	c-2.454,0-4.888-1.049-3.894-5.354c0.396-1.718,1.874-5.801,6.158-5.801C55.928,7.863,54.834,12.793,54.67,13.507 M46.419,13.105
	h7.206c0.123-0.535,0.834-4.194-2.623-4.194C48.658,8.911,47.138,10.473,46.419,13.105"/>
<path fill="#231F20" d="M64.408,12.392l-0.764,3.302c-0.68,2.945-3.779,3.324-5.139,3.324c-1.406,0-4.404-0.446-3.729-3.369
	c0.777-3.369,4.98-3.502,5.982-3.502c1.451,0,2.195,0.156,2.537,0.224c0.525-2.276-0.328-3.414-2.781-3.414
	c-1.404,0-2.643,0.335-3.191,0.49l0.248-1.069c0.865-0.269,2.037-0.515,3.262-0.515C64.047,7.862,65.088,9.446,64.408,12.392
	 M63.088,13.374c-0.281-0.045-1.225-0.201-2.699-0.201c-1.359,0-4.02,0.312-4.52,2.476c-0.457,1.986,1.529,2.365,2.867,2.365
	c1.316,0,3.361-0.357,3.816-2.32L63.088,13.374z"/>
<path fill="#231F20" d="M67.615,9.604l-2.137,9.258h-1.094l2.303-9.973c0.686-0.268,2.842-1.004,5.322-1.025l-0.248,1.071
	C70.057,8.979,68.52,9.357,67.615,9.604"/>
<path fill="#231F20" d="M74.607,17.97c1.025,0,2.121-0.201,3.166-0.58l-0.246,1.07c-1.092,0.379-2.209,0.58-3.279,0.58
	c-2.297,0-4.848-0.937-3.771-5.6c1.072-4.64,4.059-5.601,6.357-5.601c1.07,0,2.09,0.224,3.012,0.58l-0.248,1.071
	c-0.877-0.356-1.873-0.58-2.9-0.58c-2.453,0-4.344,1.138-5.127,4.529C70.781,16.854,72.152,17.97,74.607,17.97"/>
<path fill="#231F20" d="M88.734,12.235l-1.529,6.626h-1.094l1.529-6.626c0.527-2.275-0.313-3.279-2.365-3.279
	c-1.383,0-2.775,0.424-3.781,0.825l-2.098,9.08h-1.115l3.463-14.992h1.113L81.74,8.711c1.08-0.425,2.498-0.87,3.928-0.87
	C88.256,7.841,89.404,9.336,88.734,12.235"/>
</svg>
