<?xml version="1.0" encoding="utf-8"?>
<!-- Generator: Adobe Illustrator 16.0.0, SVG Export Plug-In . SVG Version: 6.00 Build 0)  -->
<!DOCTYPE svg PUBLIC "-//W3C//DTD SVG 1.1//EN" "http://www.w3.org/Graphics/SVG/1.1/DTD/svg11.dtd">
<svg version="1.1" id="Layer_1" xmlns="http://www.w3.org/2000/svg" xmlns:xlink="http://www.w3.org/1999/xlink" x="0px" y="0px"
	 width="109.778px" height="21.79px" viewBox="0 0 109.778 21.79" enable-background="new 0 0 109.778 21.79" xml:space="preserve">
<path fill="#808083" d="M72.66,17.979L75.631,3.15h6.75c3.033,0,4.281,1.326,3.748,3.977c-0.422,2.098-1.9,3.583-4.436,4.456
	L85.123,18h-3.211l-3.23-6.47l0.25-1.256c2.549-0.45,3.98-1.471,4.301-3.064c0.221-1.093-0.285-1.64-1.518-1.64h-3.77l-2.48,12.409
	H72.66z"/>
<path fill="#808083" d="M91.791,7.097c-3.482,0-5.58,1.775-6.293,5.327C84.756,16.142,86.189,18,89.797,18
	c1.723,0,3.156-0.45,4.299-1.35l0.438-2.18c-1.283,0.9-2.645,1.349-4.094,1.349c-1.91,0-2.719-0.733-2.428-2.201h2.73
	c2.93,0,4.611-1.086,5.047-3.26S94.891,7.097,91.791,7.097 M93.121,10.43c-0.16,0.782-0.811,1.174-1.953,1.174h-2.752
	c0.436-1.565,1.416-2.348,2.938-2.348C92.684,9.256,93.271,9.647,93.121,10.43"/>
<polygon fill="#808083" points="99.734,12.548 96.744,7.096 99.705,7.096 101.563,10.606 104.793,7.096 107.961,7.096 
	102.799,12.548 105.779,18 102.818,18 100.961,14.49 97.73,18 94.564,18 "/>
<path fill="#BABABA" d="M11.452,17.794l-2.307-5.531H5.313l-1.277,5.531H3L6.076,4.473h4.723c2.817,0,4.092,1.388,3.527,3.833
	c-0.636,2.755-2.95,3.625-4.065,3.791l2.393,5.697H11.452z M6.887,5.446l-1.349,5.842h3.625c2.652,0,3.75-1.347,4.113-2.921
	c0.345-1.492-0.009-2.921-2.764-2.921H6.887z"/>
<path fill="#BABABA" d="M22.791,12.822c-0.105,0.456-0.14,0.517-0.145,0.538h-7.726c-0.061,0.352-0.066,0.643-0.02,0.891
	c-0.159,1.947,1.036,2.693,2.983,2.693c1.222,0,2.502-0.249,3.435-0.704l-0.244,1.056c-1.032,0.435-2.364,0.643-3.503,0.643
	c-2.279,0-4.54-0.974-3.617-4.972c0.368-1.596,1.741-5.387,5.718-5.387C23.959,7.58,22.943,12.158,22.791,12.822 M15.129,12.449
	h6.691c0.115-0.498,0.775-3.895-2.437-3.895C17.209,8.555,15.797,10.004,15.129,12.449"/>
<path fill="#BABABA" d="M29.537,15.184c-0.373,1.616-1.883,2.776-4.286,2.776c-1.326,0-2.286-0.332-2.982-0.726l0.249-1.077
	c0.802,0.476,1.786,0.787,2.925,0.787c1.533,0,2.786-0.58,3.058-1.761c0.694-3.004-5.4-1.285-4.582-4.827
	c0.33-1.43,1.62-2.797,4.064-2.797c1.077,0,1.921,0.29,2.575,0.601l-0.234,1.015c-0.571-0.311-1.39-0.622-2.467-0.622
	c-1.325,0-2.601,0.498-2.902,1.803C24.391,12.802,30.436,11.289,29.537,15.184"/>
<path fill="#BABABA" d="M39.506,12.822c-0.104,0.456-0.14,0.517-0.145,0.538h-7.726c-0.061,0.352-0.066,0.643-0.02,0.891
	c-0.159,1.947,1.036,2.693,2.983,2.693c1.222,0,2.501-0.249,3.435-0.704l-0.243,1.056c-1.032,0.435-2.365,0.643-3.504,0.643
	c-2.279,0-4.54-0.974-3.617-4.972c0.368-1.596,1.741-5.387,5.718-5.387C40.676,7.58,39.66,12.158,39.506,12.822 M31.846,12.449
	h6.691c0.115-0.498,0.774-3.895-2.436-3.895C33.926,8.555,32.514,10.004,31.846,12.449"/>
<path fill="#BABABA" d="M48.549,11.786l-0.707,3.065c-0.633,2.735-3.509,3.087-4.773,3.087c-1.305,0-4.089-0.415-3.463-3.128
	c0.723-3.129,4.625-3.253,5.557-3.253c1.348,0,2.039,0.146,2.357,0.208c0.486-2.114-0.305-3.17-2.583-3.17
	c-1.305,0-2.454,0.31-2.964,0.456l0.229-0.995c0.803-0.248,1.892-0.476,3.03-0.476C48.215,7.581,49.182,9.052,48.549,11.786
	 M47.324,12.698c-0.26-0.042-1.138-0.187-2.505-0.187c-1.263,0-3.734,0.291-4.197,2.3c-0.426,1.844,1.42,2.196,2.662,2.196
	c1.223,0,3.123-0.331,3.543-2.155L47.324,12.698z"/>
<path fill="#BABABA" d="M51.529,9.196l-1.986,8.598h-1.014l2.137-9.26c0.637-0.249,2.639-0.932,4.943-0.953l-0.23,0.994
	C53.797,8.616,52.369,8.969,51.529,9.196"/>
<path fill="#BABABA" d="M58.021,16.965c0.953,0,1.969-0.186,2.939-0.538l-0.229,0.994c-1.014,0.353-2.051,0.538-3.045,0.538
	c-2.133,0-4.502-0.869-3.502-5.199c0.996-4.31,3.77-5.201,5.902-5.201c0.994,0,1.941,0.208,2.797,0.539l-0.229,0.994
	c-0.816-0.331-1.74-0.538-2.693-0.538c-2.279,0-4.035,1.057-4.762,4.206C54.469,15.929,55.742,16.965,58.021,16.965"/>
<path fill="#BABABA" d="M71.139,11.641l-1.42,6.153h-1.014l1.42-6.153c0.488-2.112-0.291-3.045-2.197-3.045
	c-1.285,0-2.576,0.394-3.512,0.767l-1.947,8.432h-1.035l3.215-13.922h1.035l-1.039,4.496c1.004-0.395,2.32-0.808,3.646-0.808
	C70.695,7.56,71.762,8.948,71.139,11.641"/>
</svg>
