<?xml version="1.0" encoding="utf-8"?>
<!-- Generator: Adobe Illustrator 16.0.0, SVG Export Plug-In . SVG Version: 6.00 Build 0)  -->
<!DOCTYPE svg PUBLIC "-//W3C//DTD SVG 1.1//EN" "http://www.w3.org/Graphics/SVG/1.1/DTD/svg11.dtd">
<svg version="1.1" id="Layer_1" xmlns="http://www.w3.org/2000/svg" xmlns:xlink="http://www.w3.org/1999/xlink" x="0px" y="0px"
	 width="55.883px" height="61.064px" viewBox="0 0 55.883 61.064" enable-background="new 0 0 55.883 61.064" xml:space="preserve">
<path fill="#FFFFFF" d="M41.11,30.261c0,9.019-7.312,16.33-16.33,16.33c-9.02,0-16.33-7.311-16.33-16.33
	c0-9.019,7.311-16.33,16.33-16.33C33.799,13.931,41.11,21.243,41.11,30.261"/>
<path fill="#556DB1" d="M52.942,52.006L42.62,41.684c2.541-3.631,3.925-7.937,3.925-12.46c0-5.825-2.269-11.302-6.388-15.42
	c-8.502-8.501-22.338-8.501-30.84,0c-8.503,8.502-8.503,22.338,0,30.84c4.252,4.252,9.835,6.378,15.42,6.378
	c4.367-0.001,8.726-1.321,12.455-3.922l10.328,10.328L52.942,52.006z M15.333,38.627c-5.185-5.185-5.185-13.623,0-18.808
	c2.593-2.592,5.998-3.889,9.404-3.889s6.811,1.297,9.403,3.889c2.513,2.513,3.896,5.851,3.896,9.404
	c0,3.553-1.383,6.892-3.896,9.403C28.955,43.813,20.519,43.813,15.333,38.627"/>
</svg>
