<?xml version="1.0" encoding="utf-8"?>
<!-- Generator: Adobe Illustrator 16.0.0, SVG Export Plug-In . SVG Version: 6.00 Build 0)  -->
<!DOCTYPE svg PUBLIC "-//W3C//DTD SVG 1.1//EN" "http://www.w3.org/Graphics/SVG/1.1/DTD/svg11.dtd">
<svg version="1.1" id="Layer_1" xmlns="http://www.w3.org/2000/svg" xmlns:xlink="http://www.w3.org/1999/xlink" x="0px" y="0px"
	 width="203.5px" height="38.25px" viewBox="0 0 203.5 38.25" enable-background="new 0 0 203.5 38.25" xml:space="preserve">
<path fill="#ECECEC" d="M54.159,15.99c6.207,0,4.931,6.566,4.709,7.527H45.936C47.225,18.794,49.957,15.99,54.159,15.99
	 M43.665,24.518c-1.784,7.728,2.587,9.608,6.991,9.608c2.201,0,4.775-0.397,6.771-1.241l0.472-2.038
	c-1.806,0.879-4.278,1.359-6.64,1.359c-3.765,0-6.074-1.442-5.769-5.206c-0.088-0.48-0.079-1.039,0.038-1.722h14.938
	c0.008-0.039,0.076-0.161,0.278-1.041c0.296-1.28,2.259-10.13-6.03-10.13C47.029,14.108,44.375,21.436,43.665,24.518 M82.69,28.082
	c0.897-3.883,5.672-4.444,8.112-4.444c2.645,0,4.338,0.281,4.84,0.363l-0.961,4.161c-0.814,3.525-4.484,4.163-6.846,4.163
	C85.432,32.325,81.868,31.644,82.69,28.082 M85.743,15.029l-0.444,1.924c0.987-0.282,3.207-0.882,5.728-0.882
	c4.405,0,5.937,2.041,4.993,6.125c-0.612-0.119-1.947-0.398-4.551-0.398c-1.803,0-9.344,0.238-10.739,6.284
	c-1.212,5.245,4.17,6.045,6.692,6.045c2.442,0,8.002-0.68,9.223-5.965l1.367-5.925c1.22-5.284-0.645-8.129-6.41-8.129
	C89.4,14.108,87.295,14.55,85.743,15.029 M65.122,16.151l-4.085,17.695h1.957l3.818-16.534c1.791-0.642,4.09-1.241,6.455-1.241
	c4.522,0,5.195,2.283,4.541,5.124l-2.924,12.651h2.004l2.92-12.651c1.091-4.723-1.114-7.126-5.879-7.126
	C70.164,14.069,66.649,15.429,65.122,16.151 M101.913,16.151l-4.084,17.695h1.962l3.818-16.534c1.79-0.642,4.091-1.241,6.453-1.241
	c4.525,0,5.195,2.283,4.544,5.124l-2.925,12.651h2.002l2.921-12.651c1.092-4.723-1.118-7.126-5.882-7.126
	C106.961,14.069,103.442,15.429,101.913,16.151 M123.824,8.944l-1.27,5.486h-3.123l-0.404,1.759h3.125l-2.988,12.936
	c-1.117,4.842,2.45,5.002,3.932,5.002c0.955,0,1.877-0.16,2.681-0.358l0.437-1.882c-0.736,0.24-1.533,0.397-2.455,0.397
	c-1.801,0-3.185-0.597-2.572-3.24l2.968-12.854h5.606l0.403-1.759h-5.604l1.268-5.486H123.824z M31.295,8.104l-0.445,1.922h9.371
	l-5.5,23.82h2l5.502-23.82h9.328l0.442-1.922H31.295z"/>
<path fill="#262626" d="M54.16,15.99c6.207,0,4.93,6.565,4.709,7.527H45.936C47.226,18.793,49.957,15.99,54.16,15.99 M43.666,24.518
	c-1.785,7.728,2.586,9.607,6.99,9.607c2.201,0,4.775-0.396,6.771-1.24l0.471-2.038c-1.805,0.879-4.277,1.359-6.638,1.359
	c-3.765,0-6.075-1.442-5.769-5.207c-0.089-0.479-0.08-1.039,0.037-1.72h14.938c0.008-0.039,0.076-0.162,0.279-1.042
	c0.295-1.281,2.258-10.13-6.031-10.13C47.029,14.108,44.375,21.436,43.666,24.518 M82.69,28.081
	c0.897-3.882,5.672-4.443,8.114-4.443c2.643,0,4.336,0.28,4.838,0.362l-0.96,4.162c-0.815,3.525-4.485,4.163-6.847,4.163
	C85.433,32.325,81.869,31.644,82.69,28.081 M85.744,15.029l-0.445,1.924c0.988-0.283,3.207-0.882,5.728-0.882
	c4.405,0,5.937,2.041,4.993,6.125c-0.611-0.119-1.947-0.399-4.551-0.399c-1.803,0-9.344,0.239-10.739,6.284
	c-1.212,5.246,4.17,6.045,6.692,6.045c2.443,0,8.002-0.678,9.223-5.964l1.367-5.926c1.22-5.283-0.645-8.128-6.41-8.128
	C89.4,14.108,87.297,14.55,85.744,15.029 M65.123,16.151l-4.084,17.695h1.957l3.816-16.533c1.791-0.644,4.09-1.242,6.454-1.242
	c4.524,0,5.196,2.283,4.542,5.124l-2.923,12.651h2.004l2.92-12.651c1.09-4.723-1.115-7.126-5.88-7.126
	C70.164,14.069,66.649,15.429,65.123,16.151 M101.914,16.151L97.83,33.846h1.961l3.818-16.533c1.79-0.644,4.092-1.242,6.452-1.242
	c4.526,0,5.196,2.283,4.545,5.124l-2.924,12.651h2.002l2.919-12.651c1.093-4.723-1.118-7.126-5.881-7.126
	C106.961,14.069,103.441,15.429,101.914,16.151 M123.824,8.944l-1.269,5.486h-3.122l-0.406,1.759h3.124l-2.987,12.935
	c-1.117,4.843,2.449,5.002,3.932,5.002c0.955,0,1.879-0.159,2.681-0.357l0.437-1.881c-0.738,0.238-1.532,0.396-2.452,0.396
	c-1.804,0-3.188-0.597-2.575-3.241l2.969-12.854h5.605l0.404-1.759h-5.605l1.268-5.486H123.824z M31.295,8.104l-0.444,1.922h9.371
	l-5.5,23.82h2.001l5.5-23.82h9.328l0.443-1.922H31.295z"/>
<path fill="#C32127" d="M130.805,33.963l5.584-27.877h12.689c5.701,0,8.049,2.492,7.047,7.476c-0.793,3.945-3.572,6.735-8.336,8.376
	l6.442,12.065h-6.032l-6.074-12.163l0.471-2.362c4.79-0.846,7.482-2.766,8.084-5.76c0.415-2.055-0.534-3.083-2.852-3.083h-7.088
	l-4.664,23.328H130.805z M175.355,19.635c-0.818,4.087-3.98,6.129-9.488,6.129h-5.133c-0.547,2.76,0.975,4.139,4.567,4.139
	c2.722,0,5.282-0.846,7.692-2.536l-0.819,4.099c-2.149,1.692-4.843,2.538-8.083,2.538c-6.781,0-9.475-3.494-8.083-10.483
	c1.341-6.678,5.284-10.016,11.832-10.016C173.67,13.504,176.177,15.548,175.355,19.635 M161.496,21.978h5.172
	c2.148,0,3.371-0.735,3.672-2.207c0.285-1.471-0.821-2.207-3.319-2.207C164.156,17.564,162.314,19.037,161.496,21.978
	 M182.775,23.754l-5.621-10.25h5.563l3.495,6.6l6.071-6.6h5.955l-9.703,10.25l5.603,10.249h-5.563l-3.494-6.599l-6.072,6.599h-5.954
	L182.775,23.754z"/>
<polygon fill="#EF5050" points="7.11,19.58 5.551,8.167 14.842,4.227 14.842,5.741 7.075,9.032 8.395,18.675 10.557,19.797 
	10.26,17.638 14.842,16.878 14.842,33.927 8.766,20.433 "/>
<polygon fill="#F3A849" points="14.841,12.44 14.841,14.65 10.09,15.725 9.842,13.897 "/>
<polygon fill="#EF5050" points="14.841,8 14.841,10.228 9.601,12.1 9.357,10.315 "/>
<polygon fill="#C32127" points="22.568,19.58 24.129,8.167 14.838,4.227 14.838,5.741 22.604,9.032 21.283,18.675 19.122,19.797 
	19.42,17.638 14.838,16.878 14.838,33.927 20.914,20.433 "/>
<polygon fill="#F1971F" points="14.84,12.44 14.84,14.65 19.59,15.725 19.838,13.897 "/>
<polygon fill="#C32127" points="14.84,8 14.84,10.228 20.078,12.1 20.322,10.315 "/>
</svg>
