<?xml version="1.0" encoding="utf-8"?>
<!-- Generator: Adobe Illustrator 16.0.0, SVG Export Plug-In . SVG Version: 6.00 Build 0)  -->
<!DOCTYPE svg PUBLIC "-//W3C//DTD SVG 1.1//EN" "http://www.w3.org/Graphics/SVG/1.1/DTD/svg11.dtd">
<svg version="1.1" id="Layer_1" xmlns="http://www.w3.org/2000/svg" xmlns:xlink="http://www.w3.org/1999/xlink" x="0px" y="0px"
	 width="94.793px" height="21.79px" viewBox="0 0 94.793 21.79" enable-background="new 0 0 94.793 21.79" xml:space="preserve">
<path fill="#C12228" d="M55.521,18.523l2.97-14.829h6.75c3.033,0,4.281,1.326,3.748,3.977c-0.422,2.098-1.899,3.583-4.435,4.456
	l3.429,6.417h-3.21l-3.23-6.47l0.25-1.256c2.549-0.45,3.98-1.471,4.301-3.064c0.221-1.093-0.284-1.64-1.518-1.64h-3.77
	l-2.481,12.409H55.521z"/>
<path fill="#C12228" d="M74.651,7.642c-3.481,0-5.58,1.775-6.293,5.327c-0.741,3.718,0.692,5.576,4.3,5.576
	c1.723,0,3.156-0.449,4.299-1.35l0.437-2.18c-1.282,0.9-2.644,1.349-4.093,1.349c-1.91,0-2.719-0.733-2.428-2.201h2.729
	c2.931,0,4.612-1.086,5.047-3.26C79.086,8.729,77.752,7.642,74.651,7.642 M75.981,10.975c-0.159,0.782-0.81,1.174-1.953,1.174
	h-2.751c0.436-1.565,1.415-2.348,2.938-2.348C75.545,9.801,76.133,10.192,75.981,10.975"/>
<polygon fill="#C12228" points="82.596,13.093 79.605,7.641 82.565,7.641 84.424,11.151 87.654,7.641 90.821,7.641 85.659,13.093 
	88.641,18.545 85.68,18.545 83.822,15.035 80.592,18.545 77.426,18.545 "/>
<polygon fill="#FFFFFF" points="14.282,4.331 14.042,5.37 9.002,5.37 6.029,18.245 4.947,18.245 7.919,5.37 2.857,5.37 3.097,4.331 
	"/>
<path fill="#FFFFFF" d="M18.356,13.051c-0.109,0.477-0.145,0.541-0.15,0.563h-8.071c-0.063,0.368-0.068,0.671-0.02,0.931
	c-0.166,2.033,1.082,2.813,3.115,2.813c1.277,0,2.613-0.26,3.589-0.735l-0.255,1.103c-1.079,0.455-2.47,0.671-3.66,0.671
	c-2.38,0-4.741-1.017-3.777-5.193c0.384-1.666,1.818-5.626,5.972-5.626C19.577,7.577,18.516,12.358,18.356,13.051 M10.355,12.662
	h6.988c0.12-0.519,0.81-4.068-2.544-4.068C12.528,8.594,11.053,10.108,10.355,12.662"/>
<path fill="#FFFFFF" d="M28.213,11.406l-1.579,6.838h-1.081l1.578-6.838c0.354-1.536-0.01-2.77-2.454-2.77
	c-1.277,0-2.52,0.325-3.487,0.671l-2.063,8.937h-1.06l2.208-9.564c0.826-0.389,2.726-1.126,4.76-1.126
	C27.609,7.555,28.803,8.854,28.213,11.406"/>
<path fill="#FFFFFF" d="M37.604,11.97l-0.74,3.202c-0.659,2.857-3.665,3.224-4.984,3.224c-1.363,0-4.27-0.433-3.616-3.267
	c0.755-3.268,4.83-3.397,5.803-3.397c1.407,0,2.13,0.151,2.461,0.216c0.509-2.207-0.318-3.311-2.698-3.311
	c-1.363,0-2.563,0.325-3.095,0.476l0.24-1.039c0.839-0.259,1.975-0.497,3.165-0.497C37.256,7.577,38.264,9.113,37.604,11.97
	 M36.324,12.921c-0.271-0.043-1.188-0.194-2.616-0.194c-1.32,0-3.899,0.303-4.384,2.402c-0.444,1.925,1.483,2.293,2.781,2.293
	c1.276,0,3.26-0.346,3.7-2.25L36.324,12.921z"/>
<path fill="#FFFFFF" d="M47.623,11.406l-1.58,6.838h-1.08l1.578-6.838c0.354-1.536-0.01-2.77-2.455-2.77
	c-1.276,0-2.52,0.325-3.486,0.671l-2.063,8.937h-1.061l2.208-9.564c0.826-0.389,2.726-1.126,4.76-1.126
	C47.019,7.555,48.211,8.854,47.623,11.406"/>
<path fill="#FFFFFF" d="M52.369,17.184l-0.234,1.017c-0.437,0.108-0.933,0.195-1.453,0.195c-0.8,0-2.727-0.087-2.123-2.706
	l1.614-6.988h-1.687l0.22-0.953h1.687l0.685-2.964h1.082l-0.685,2.964h3.029l-0.22,0.953h-3.029l-1.603,6.946
	c-0.33,1.428,0.417,1.752,1.391,1.752C51.54,17.4,51.971,17.314,52.369,17.184"/>
</svg>
