<?xml version="1.0" encoding="utf-8"?>
<!-- Generator: Adobe Illustrator 16.0.0, SVG Export Plug-In . SVG Version: 6.00 Build 0)  -->
<!DOCTYPE svg PUBLIC "-//W3C//DTD SVG 1.1//EN" "http://www.w3.org/Graphics/SVG/1.1/DTD/svg11.dtd">
<svg version="1.1" id="Layer_1" xmlns="http://www.w3.org/2000/svg" xmlns:xlink="http://www.w3.org/1999/xlink" x="0px" y="0px"
	 width="112.86px" height="21.79px" viewBox="0 0 112.86 21.79" enable-background="new 0 0 112.86 21.79" xml:space="preserve">
<path fill="#C32127" d="M71.527,19.352l3.179-15.875h7.228c3.246,0,4.583,1.419,4.012,4.257c-0.451,2.246-2.034,3.836-4.746,4.77
	l3.669,6.87h-3.436l-3.458-6.926l0.267-1.345c2.729-0.482,4.262-1.575,4.604-3.28c0.236-1.17-0.303-1.756-1.623-1.756h-4.036
	l-2.657,13.285H71.527z M96.897,11.191c-0.466,2.328-2.267,3.491-5.404,3.491H88.57c-0.311,1.57,0.556,2.356,2.603,2.356
	c1.549,0,3.008-0.481,4.38-1.445l-0.468,2.334c-1.223,0.965-2.758,1.445-4.603,1.445c-3.861,0-5.395-1.989-4.602-5.97
	C86.644,9.602,88.89,7.7,92.617,7.7C95.938,7.7,97.364,8.864,96.897,11.191 M89.005,12.526h2.945c1.224,0,1.92-0.42,2.09-1.257
	c0.162-0.838-0.467-1.258-1.89-1.258C90.52,10.012,89.471,10.852,89.005,12.526 M101.122,13.537L97.921,7.7h3.168l1.99,3.758
	l3.457-3.758h3.392l-5.525,5.837l3.19,5.836h-3.168l-1.99-3.757l-3.458,3.757h-3.39L101.122,13.537z"/>
<polygon fill="#EF5050" points="4.089,11.16 3.2,4.66 8.491,2.417 8.491,3.279 4.068,5.154 4.82,10.646 6.052,11.284 5.882,10.054 
	8.491,9.621 8.491,19.33 5.031,11.646 "/>
<polygon fill="#F3A849" points="8.491,7.094 8.491,8.353 5.786,8.965 5.644,7.924 "/>
<polygon fill="#EF5050" points="8.491,4.565 8.491,5.835 5.507,6.9 5.368,5.885 "/>
<polygon fill="#C32127" points="12.892,11.16 13.779,4.66 8.488,2.417 8.488,3.279 12.911,5.154 12.159,10.646 10.929,11.284 
	11.099,10.054 8.488,9.621 8.488,19.33 11.948,11.646 "/>
<polygon fill="#F1971F" points="8.49,7.094 8.49,8.353 11.194,8.965 11.336,7.924 "/>
<polygon fill="#C32127" points="8.49,4.565 8.49,5.835 11.473,6.9 11.612,5.885 "/>
<g>
	<defs>
		<path id="SVGID_1_" d="M29.089,8.491c3.534,0,2.808,3.736,2.681,4.286h-7.364C25.139,10.087,26.695,8.491,29.089,8.491
			 M23.112,13.346c-1.017,4.401,1.473,5.473,3.98,5.473c1.253,0,2.72-0.227,3.856-0.707l0.268-1.16
			c-1.027,0.5-2.435,0.774-3.779,0.774c-2.145,0-3.461-0.821-3.285-2.966c-0.051-0.272-0.045-0.592,0.021-0.979h8.506
			c0.004-0.023,0.043-0.094,0.159-0.594c0.168-0.729,1.285-5.769-3.435-5.769C25.028,7.419,23.517,11.591,23.112,13.346
			 M45.335,15.376c0.512-2.212,3.229-2.531,4.62-2.531c1.506,0,2.47,0.16,2.756,0.207l-0.546,2.37c-0.465,2.007-2.555,2.37-3.9,2.37
			C46.896,17.792,44.867,17.404,45.335,15.376 M47.074,7.943l-0.253,1.096c0.562-0.161,1.825-0.502,3.261-0.502
			c2.509,0,3.38,1.162,2.843,3.486c-0.348-0.066-1.108-0.227-2.591-0.227c-1.026,0-5.321,0.136-6.115,3.579
			c-0.69,2.987,2.374,3.442,3.811,3.442c1.392,0,4.558-0.387,5.252-3.396l0.779-3.375c0.694-3.008-0.367-4.628-3.65-4.628
			C49.156,7.419,47.958,7.671,47.074,7.943 M35.331,8.582l-2.326,10.077h1.115l2.173-9.415c1.02-0.366,2.329-0.707,3.676-0.707
			c2.575,0,2.959,1.299,2.586,2.918l-1.664,7.204h1.142l1.663-7.204c0.621-2.69-0.635-4.06-3.349-4.06
			C38.202,7.396,36.2,8.171,35.331,8.582 M56.282,8.582l-2.326,10.077h1.117l2.175-9.415c1.019-0.366,2.33-0.707,3.674-0.707
			c2.577,0,2.959,1.299,2.588,2.918l-1.665,7.204h1.141l1.663-7.204c0.621-2.69-0.639-4.06-3.35-4.06
			C59.157,7.396,57.151,8.171,56.282,8.582 M68.759,4.479l-0.722,3.123h-1.778l-0.231,1.002h1.779l-1.701,7.366
			c-0.637,2.757,1.396,2.849,2.238,2.849c0.543,0,1.07-0.092,1.527-0.204l0.249-1.071c-0.421,0.136-0.873,0.226-1.397,0.226
			c-1.026,0-1.815-0.34-1.466-1.846l1.69-7.319h3.191l0.231-1.002h-3.193l0.723-3.123H68.759z M16.067,4l-0.253,1.094h5.337
			L18.02,18.659h1.14L22.29,5.094h5.313L27.855,4H16.067z"/>
	</defs>
	<clipPath id="SVGID_2_">
		<use xlink:href="#SVGID_1_"  overflow="visible"/>
	</clipPath>
	<polygon clip-path="url(#SVGID_2_)" fill="#262626" points="75.791,4 72.369,18.818 12.393,18.818 15.813,4 	"/>
</g>
</svg>
