<?xml version="1.0" encoding="utf-8"?>
<!-- Generator: Adobe Illustrator 16.0.0, SVG Export Plug-In . SVG Version: 6.00 Build 0)  -->
<!DOCTYPE svg PUBLIC "-//W3C//DTD SVG 1.1//EN" "http://www.w3.org/Graphics/SVG/1.1/DTD/svg11.dtd">
<svg version="1.1" id="Layer_1" xmlns="http://www.w3.org/2000/svg" xmlns:xlink="http://www.w3.org/1999/xlink" x="0px" y="0px"
	 width="100px" height="21.79px" viewBox="0 0 100 21.79" enable-background="new 0 0 100 21.79" xml:space="preserve">
<path fill="#808083" d="M59.453,18.299L62.424,3.47h6.75c3.033,0,4.281,1.326,3.748,3.977c-0.422,2.098-1.9,3.583-4.435,4.456
	l3.429,6.417h-3.211l-3.229-6.47l0.25-1.256c2.548-0.45,3.979-1.471,4.3-3.064c0.221-1.093-0.283-1.64-1.518-1.64h-3.77
	l-2.48,12.409H59.453z"/>
<path fill="#808083" d="M78.584,7.417c-3.482,0-5.58,1.775-6.293,5.327c-0.741,3.718,0.693,5.576,4.299,5.576
	c1.724,0,3.156-0.45,4.3-1.35l0.437-2.18c-1.283,0.9-2.645,1.349-4.092,1.349c-1.912,0-2.721-0.733-2.43-2.201h2.73
	c2.93,0,4.611-1.086,5.047-3.26C83.019,8.504,81.685,7.417,78.584,7.417 M79.914,10.75c-0.159,0.782-0.811,1.174-1.953,1.174h-2.752
	c0.436-1.565,1.416-2.348,2.938-2.348C79.477,9.576,80.064,9.968,79.914,10.75"/>
<polygon fill="#808083" points="86.529,12.868 83.537,7.417 86.498,7.417 88.356,10.927 91.586,7.417 94.754,7.417 89.592,12.868 
	92.572,18.32 89.613,18.32 87.754,14.811 84.524,18.32 81.357,18.32 "/>
<polygon fill="#BABABA" points="18.214,4.106 17.974,5.145 12.934,5.145 9.961,18.02 8.879,18.02 11.851,5.145 6.789,5.145 
	7.029,4.106 "/>
<path fill="#BABABA" d="M22.288,12.826c-0.109,0.477-0.145,0.541-0.15,0.563h-8.071c-0.063,0.368-0.068,0.671-0.02,0.931
	c-0.166,2.033,1.082,2.813,3.115,2.813c1.277,0,2.613-0.26,3.589-0.735L20.496,17.5c-1.079,0.455-2.47,0.671-3.66,0.671
	c-2.38,0-4.741-1.017-3.777-5.193c0.384-1.666,1.818-5.626,5.972-5.626C23.509,7.352,22.448,12.134,22.288,12.826 M14.287,12.437
	h6.988c0.12-0.52,0.81-4.068-2.544-4.068C16.46,8.369,14.985,9.884,14.287,12.437"/>
<path fill="#BABABA" d="M32.146,11.182l-1.579,6.838h-1.081l1.578-6.838c0.355-1.536-0.01-2.77-2.454-2.77
	c-1.277,0-2.52,0.325-3.487,0.671L23.06,18.02H22l2.208-9.564c0.826-0.39,2.726-1.126,4.76-1.126
	C31.542,7.33,32.735,8.629,32.146,11.182"/>
<path fill="#BABABA" d="M41.537,11.745l-0.74,3.202c-0.659,2.856-3.666,3.224-4.984,3.224c-1.363,0-4.27-0.433-3.616-3.267
	c0.755-3.268,4.83-3.397,5.804-3.397c1.406,0,2.129,0.151,2.461,0.216c0.508-2.207-0.318-3.311-2.698-3.311
	c-1.363,0-2.563,0.325-3.095,0.476l0.239-1.039c0.839-0.259,1.976-0.497,3.165-0.497C41.188,7.352,42.196,8.888,41.537,11.745
	 M40.256,12.696c-0.271-0.043-1.188-0.194-2.615-0.194c-1.32,0-3.899,0.302-4.384,2.402c-0.444,1.925,1.483,2.293,2.781,2.293
	c1.276,0,3.26-0.346,3.7-2.25L40.256,12.696z"/>
<path fill="#BABABA" d="M51.555,11.182l-1.579,6.838h-1.081l1.578-6.838c0.355-1.536-0.01-2.77-2.454-2.77
	c-1.276,0-2.521,0.325-3.487,0.671l-2.063,8.937h-1.061l2.209-9.564c0.826-0.39,2.726-1.126,4.76-1.126
	C50.951,7.33,52.144,8.629,51.555,11.182"/>
<path fill="#BABABA" d="M56.301,16.959l-0.234,1.017c-0.436,0.108-0.932,0.195-1.452,0.195c-0.8,0-2.728-0.087-2.123-2.706
	l1.614-6.988h-1.688l0.221-0.953h1.687l0.685-2.964h1.082l-0.685,2.964h3.028l-0.219,0.953h-3.029l-1.604,6.946
	c-0.33,1.428,0.418,1.752,1.391,1.752C55.473,17.176,55.903,17.09,56.301,16.959"/>
</svg>
